<svg width="398" height="175" viewBox="0 0 398 175" fill="none" xmlns="http://www.w3.org/2000/svg">
<path d="M296.626 175H81.0011C60.0838 174.989 39.9836 169.29 24.9083 159.095C9.83296 148.901 0.951413 135.003 0.122947 120.309C-0.70552 105.616 6.58332 91.2664 20.4636 80.2654C34.3438 69.2644 53.7394 62.4647 74.5898 61.2896C77.5631 46.5294 87.0442 32.796 101.699 22.0214C116.354 11.2469 135.445 3.97349 156.286 1.22448C177.128 -1.52452 198.671 0.389222 217.885 6.69648C237.098 13.0037 253.016 23.3871 263.398 36.3857C282.439 31.7519 303.012 31.2104 322.492 34.8303C341.973 38.4501 359.479 46.0673 372.776 56.7102C386.074 67.3531 394.56 80.5394 397.154 94.5871C399.747 108.635 396.33 122.907 387.337 135.584C382.061 147.038 371.758 157.022 357.907 164.104C344.057 171.185 327.372 175 310.246 175H296.626Z" fill="url(#paint0_linear_120_3)"/>
<path d="M310.246 174.208C318.942 174.208 327.491 173.232 335.658 171.307C343.555 169.445 350.968 166.729 357.693 163.232C364.34 159.776 370.166 155.637 375.011 150.928C379.916 146.16 383.702 140.916 386.266 135.34L386.292 135.283L386.33 135.229C389.738 130.441 392.363 125.375 394.131 120.172C395.951 114.819 396.874 109.288 396.874 103.733C396.874 98.9505 396.188 94.1716 394.837 89.5287C393.52 85.0042 391.555 80.5537 388.996 76.3009C386.484 72.1252 383.374 68.0976 379.754 64.33C376.167 60.5981 372.049 57.0887 367.512 53.8993C362.975 50.71 357.983 47.8144 352.675 45.2932C347.316 42.7479 341.587 40.5617 335.647 38.7955C329.597 36.9967 323.267 35.6152 316.831 34.6893C310.226 33.7393 303.428 33.2575 296.626 33.2575C285.363 33.2575 274.307 34.5607 263.766 37.1307L262.877 37.3476L262.415 36.7707C253.837 26.0475 241.359 17.0421 226.331 10.7279C218.73 7.53472 210.565 5.06712 202.061 3.39368C193.289 1.66722 184.176 0.791855 174.977 0.791855C162.604 0.791855 150.526 2.35735 139.079 5.44483C128.02 8.42746 117.875 12.736 108.927 18.2507C100.029 23.7337 92.6452 30.2031 86.9803 37.4792C81.1763 44.9339 77.3827 52.9809 75.7052 61.3964L75.5797 62.0263L74.6777 62.076C64.5873 62.6312 54.8792 64.4989 45.823 67.627C37.0233 70.6665 29.1655 74.7777 22.4678 79.8463C8.70561 90.2611 1.12638 103.831 1.12638 118.055C1.12638 125.636 3.23808 132.99 7.40285 139.912C9.40463 143.239 11.8823 146.448 14.7671 149.45C17.6246 152.424 20.9064 155.22 24.5211 157.761C28.1359 160.302 32.1134 162.609 36.3431 164.618C40.6132 166.646 45.1778 168.388 49.9105 169.795C59.757 172.723 70.2173 174.208 81.0008 174.208H296.626H310.246ZM310.246 175H296.626H81.0008C36.2655 175 0 149.505 0 118.055C0 88.1222 32.8504 63.5834 74.5897 61.2865C81.4938 26.6518 123.808 0 174.977 0C212.939 0 246.026 14.6677 263.397 36.3826C273.807 33.8444 284.987 32.4657 296.626 32.4657C352.614 32.4657 398 64.3733 398 103.733C398 115.18 394.159 125.999 387.337 135.584C376.822 158.457 346.283 175 310.246 175Z" fill="white" fill-opacity="0.5"/>
<defs>
<linearGradient id="paint0_linear_120_3" x1="199.028" y1="0.00195312" x2="260.726" y2="212.189" gradientUnits="userSpaceOnUse">
<stop stop-color="white" stop-opacity="0.604"/>
<stop offset="1" stop-color="white" stop-opacity="0.2"/>
</linearGradient>
</defs>
</svg>
