<svg width="1920" height="1080" viewBox="0 0 1920 1080" fill="none" xmlns="http://www.w3.org/2000/svg">
<rect width="1920" height="1080" fill="url(#paint0_linear_136_2)" fill-opacity="0.75"/>
<path d="M411.501 220.43H124.001C96.1118 220.418 69.3114 214.407 49.211 203.655C29.1106 192.904 17.2686 178.245 16.1639 162.748C15.0593 147.251 24.7778 132.117 43.2848 120.514C61.7918 108.912 87.6525 101.74 115.453 100.501C119.418 84.9332 132.059 70.4488 151.599 59.085C171.138 47.7212 196.593 40.0501 224.382 37.1507C252.171 34.2514 280.895 36.2698 306.513 42.922C332.131 49.5741 353.354 60.5253 367.197 74.2348C392.585 69.3476 420.016 68.7765 445.99 72.5943C471.964 76.4121 495.305 84.4459 513.035 95.6708C530.765 106.896 542.08 120.803 545.538 135.619C548.996 150.435 544.439 165.488 532.45 178.858C525.414 190.938 511.677 201.468 493.21 208.937C474.743 216.406 452.496 220.429 429.661 220.43H411.501Z" fill="url(#paint1_linear_136_2)"/>
<path d="M429.661 219.594C441.255 219.594 452.655 218.565 463.544 216.534C474.073 214.571 483.957 211.706 492.923 208.018C501.786 204.374 509.555 200.007 516.014 195.041C522.554 190.013 527.603 184.482 531.021 178.601L531.056 178.541L531.107 178.484C535.651 173.433 539.151 168.09 541.509 162.604C543.935 156.958 545.165 151.124 545.165 145.265C545.165 140.221 544.251 135.181 542.449 130.284C540.693 125.512 538.073 120.818 534.662 116.333C531.312 111.929 527.166 107.681 522.338 103.707C517.557 99.7714 512.065 96.0701 506.016 92.7063C499.967 89.3425 493.311 86.2887 486.233 83.6295C479.088 80.945 471.449 78.6393 463.529 76.7765C455.463 74.8794 447.022 73.4223 438.441 72.4458C429.635 71.4437 420.571 70.9357 411.501 70.9357C396.484 70.9357 381.743 72.3101 367.688 75.0207L366.502 75.2494L365.887 74.641C354.449 63.3314 337.812 53.8334 317.774 47.174C307.641 43.8061 296.753 41.2036 285.415 39.4386C273.718 37.6178 261.568 36.6945 249.303 36.6945C232.806 36.6945 216.702 38.3456 201.439 41.602C186.694 44.7477 173.167 49.2919 161.235 55.1081C149.372 60.891 139.527 67.7142 131.974 75.3882C124.235 83.2506 119.177 91.7376 116.94 100.613L116.773 101.278L115.57 101.33C102.116 101.916 89.1723 103.886 77.0973 107.185C65.3644 110.39 54.8873 114.726 45.9571 120.072C27.6075 131.057 17.5018 145.368 17.5018 160.371C17.5018 168.366 20.3174 176.122 25.8705 183.423C28.5395 186.932 31.8431 190.316 35.6894 193.482C39.4995 196.619 43.8752 199.568 48.6948 202.248C53.5145 204.928 58.8179 207.361 64.4575 209.48C70.1509 211.619 76.2371 213.456 82.5473 214.94C95.6761 218.028 109.623 219.594 124.001 219.594H411.501H429.661ZM429.661 220.429H411.501H124.001C64.354 220.429 16 193.54 16 160.371C16 128.801 59.8005 102.92 115.453 100.498C124.658 63.9687 181.077 35.8594 249.303 35.8594C299.918 35.8594 344.035 51.3292 367.196 74.2316C381.076 71.5547 395.983 70.1005 411.501 70.1005C486.152 70.1005 546.667 103.753 546.667 145.265C546.667 157.338 541.546 168.749 532.45 178.858C518.43 202.982 477.71 220.429 429.661 220.429Z" fill="white" fill-opacity="0.5"/>
<g filter="url(#filter0_b_136_2)">
<path d="M1790.89 776.283C1798.95 776.282 1807 776.938 1814.91 778.243C1830.16 780.775 1844.65 785.71 1857.53 792.765C1875.38 802.508 1889.64 815.944 1898.81 831.661C1907.98 847.378 1911.73 864.794 1909.66 882.08C1907.59 899.367 1899.77 915.884 1887.04 929.897C1874.3 943.91 1857.11 954.901 1837.28 961.715C1830.07 964.182 1822.58 966.066 1814.91 967.338C1798.27 970.056 1781.11 969.886 1764.56 966.841C1748.01 963.797 1732.46 957.946 1718.93 949.681C1705.41 941.415 1694.23 930.923 1686.14 918.904C1678.05 906.885 1673.23 893.615 1672 879.978C1685.04 882.436 1698.6 882.593 1711.72 880.438C1723.5 878.495 1734.69 874.702 1744.65 869.276C1759.46 861.225 1771.05 849.888 1778.02 836.638C1780.38 832.15 1782.17 827.486 1783.39 822.713C1785.97 812.487 1785.88 801.938 1783.11 791.744C1781.71 786.646 1779.65 781.681 1776.95 776.934C1781.58 776.5 1786.23 776.283 1790.89 776.283Z" fill="#713FFD"/>
<g filter="url(#filter1_f_136_2)">
<path d="M1871.55 806.117C1844.79 786.71 1809.73 782.93 1793.25 797.676C1776.77 812.422 1785.1 840.109 1811.86 859.517C1838.62 878.925 1873.67 882.704 1890.15 867.958C1906.64 853.212 1898.31 825.525 1871.55 806.117Z" fill="#A586FC"/>
</g>
</g>
<defs>
<filter id="filter0_b_136_2" x="1668" y="772.283" width="246.213" height="200.975" filterUnits="userSpaceOnUse" color-interpolation-filters="sRGB">
<feFlood flood-opacity="0" result="BackgroundImageFix"/>
<feGaussianBlur in="BackgroundImageFix" stdDeviation="2"/>
<feComposite in2="SourceAlpha" operator="in" result="effect1_backgroundBlur_136_2"/>
<feBlend mode="normal" in="SourceGraphic" in2="effect1_backgroundBlur_136_2" result="shape"/>
</filter>
<filter id="filter1_f_136_2" x="1764.79" y="768.681" width="153.83" height="128.271" filterUnits="userSpaceOnUse" color-interpolation-filters="sRGB">
<feFlood flood-opacity="0" result="BackgroundImageFix"/>
<feBlend mode="normal" in="SourceGraphic" in2="BackgroundImageFix" result="shape"/>
<feGaussianBlur stdDeviation="10" result="effect1_foregroundBlur_136_2"/>
</filter>
<linearGradient id="paint0_linear_136_2" x1="1677.33" y1="-5.96119e-05" x2="1188.95" y2="1175.15" gradientUnits="userSpaceOnUse">
<stop stop-color="#007BFF"/>
<stop offset="1" stop-color="#A586FC"/>
</linearGradient>
<linearGradient id="paint1_linear_136_2" x1="281.371" y1="35.8613" x2="334.391" y2="266.379" gradientUnits="userSpaceOnUse">
<stop stop-color="white" stop-opacity="0.604"/>
<stop offset="1" stop-color="white" stop-opacity="0.2"/>
</linearGradient>
</defs>
</svg>
