<svg width="428" height="926" viewBox="0 0 428 926" fill="none" xmlns="http://www.w3.org/2000/svg">
<g clip-path="url(#clip0_149_2)">
<rect width="428" height="926" fill="white"/>
<rect width="428" height="926" fill="url(#paint0_linear_149_2)" fill-opacity="0.75"/>
<path d="M124.175 115H41.5913C33.58 114.995 25.8817 112.414 20.1079 107.797C14.3341 103.18 10.9325 96.8861 10.6152 90.2317C10.2979 83.5773 13.0895 77.0788 18.4056 72.0967C23.7217 67.1146 31.1501 64.0351 39.1358 63.5029C40.2746 56.8184 43.9058 50.5988 49.5186 45.7192C55.1313 40.8397 62.4432 37.5457 70.4254 36.3007C78.4076 35.0558 86.6586 35.9225 94.0174 38.7789C101.376 41.6353 107.472 46.3377 111.449 52.2245C118.741 50.1259 126.621 49.8807 134.082 51.5201C141.543 53.1594 148.248 56.6091 153.34 61.4291C158.433 66.249 161.684 72.2208 162.677 78.5827C163.67 84.9446 162.361 91.4082 158.917 97.1492C156.896 102.336 152.95 106.858 147.646 110.065C142.341 113.272 135.951 115 129.391 115H124.175Z" fill="url(#paint1_linear_149_2)"/>
<path d="M129.39 114.641C132.72 114.641 135.995 114.199 139.123 113.327C142.147 112.484 144.987 111.254 147.562 109.671C150.108 108.105 152.339 106.231 154.195 104.098C156.073 101.939 157.524 99.5639 158.505 97.0387L158.515 97.0129L158.53 96.9885C159.836 94.8198 160.841 92.5256 161.518 90.1697C162.215 87.7452 162.568 85.2403 162.568 82.7244C162.568 80.5587 162.306 78.3944 161.788 76.2918C161.284 74.2427 160.531 72.2272 159.551 70.3012C158.589 68.4101 157.398 66.586 156.011 64.8798C154.638 63.1897 153.06 61.6004 151.323 60.156C149.585 58.7116 147.673 57.4002 145.64 56.2584C143.588 55.1057 141.393 54.1156 139.119 53.3158C136.802 52.5011 134.377 51.8755 131.912 51.4562C129.383 51.0259 126.779 50.8077 124.174 50.8077C119.86 50.8077 115.626 51.3979 111.588 52.5618L111.248 52.66L111.071 52.3988C107.786 47.5425 103.007 43.4641 97.2507 40.6046C94.3398 39.1584 91.2125 38.0409 87.9557 37.283C84.5957 36.5011 81.1057 36.1047 77.5825 36.1047C72.8437 36.1047 68.2179 36.8137 63.8336 38.2119C59.5981 39.5627 55.7127 41.514 52.2852 44.0114C48.8775 46.4946 46.0495 49.4244 43.8799 52.7196C41.657 56.0957 40.204 59.74 39.5616 63.5512L39.5135 63.8365L39.168 63.859C35.3034 64.1104 31.5853 64.9563 28.1167 66.3729C24.7465 67.7495 21.737 69.6113 19.1718 71.9068C13.9009 76.6234 10.998 82.7688 10.998 89.2108C10.998 92.644 11.8068 95.9743 13.4019 99.1093C14.1686 100.616 15.1175 102.069 16.2224 103.429C17.3168 104.776 18.5737 106.042 19.9582 107.193C21.3426 108.344 22.866 109.388 24.486 110.298C26.1214 111.217 27.8696 112.006 29.6822 112.643C33.4534 113.969 37.4597 114.641 41.5897 114.641H124.174H129.39ZM129.39 115H124.174H41.5897C24.4562 115 10.5667 103.454 10.5667 89.2108C10.5667 75.6548 23.1483 64.5417 39.1343 63.5015C41.7786 47.8161 57.9848 35.7461 77.5825 35.7461C92.1216 35.7461 104.794 42.3888 111.447 52.223C115.434 51.0735 119.716 50.4491 124.174 50.4491C145.617 50.4491 163 64.8994 163 82.7244C163 87.9086 161.529 92.8083 158.916 97.149C154.889 107.508 143.192 115 129.39 115Z" fill="white" fill-opacity="0.5"/>
<g filter="url(#filter0_b_149_2)">
<path d="M346.196 748.372C350.62 748.372 355.033 748.789 359.368 749.618C367.734 751.227 375.678 754.363 382.743 758.846C392.53 765.038 400.349 773.576 405.379 783.563C410.409 793.55 412.464 804.618 411.328 815.603C410.192 826.587 405.907 837.084 398.923 845.988C391.939 854.893 382.514 861.877 371.639 866.207C367.685 867.775 363.575 868.972 359.368 869.781C350.245 871.507 340.832 871.4 331.757 869.465C322.682 867.53 314.153 863.813 306.738 858.56C299.323 853.307 293.193 846.64 288.755 839.003C284.316 831.365 281.673 822.933 281 814.267C288.154 815.829 295.585 815.928 302.783 814.559C309.244 813.324 315.38 810.914 320.843 807.466C328.963 802.35 335.319 795.145 339.141 786.726C340.432 783.874 341.418 780.91 342.084 777.877C343.502 771.379 343.45 764.675 341.93 758.197C341.165 754.958 340.034 751.803 338.555 748.786C341.092 748.51 343.643 748.372 346.196 748.372Z" fill="#713FFD"/>
<g filter="url(#filter1_f_149_2)">
<path d="M390.429 767.331C375.755 754.998 356.531 752.596 347.492 761.967C338.453 771.337 343.021 788.931 357.695 801.264C372.37 813.597 391.593 815.998 400.633 806.628C409.672 797.258 405.104 779.664 390.429 767.331Z" fill="#A586FC"/>
</g>
</g>
</g>
<defs>
<filter id="filter0_b_149_2" x="277" y="744.372" width="138.633" height="130.628" filterUnits="userSpaceOnUse" color-interpolation-filters="sRGB">
<feFlood flood-opacity="0" result="BackgroundImageFix"/>
<feGaussianBlur in="BackgroundImageFix" stdDeviation="2"/>
<feComposite in2="SourceAlpha" operator="in" result="effect1_backgroundBlur_149_2"/>
<feBlend mode="normal" in="SourceGraphic" in2="effect1_backgroundBlur_149_2" result="shape"/>
</filter>
<filter id="filter1_f_149_2" x="322.851" y="736.251" width="102.422" height="96.0933" filterUnits="userSpaceOnUse" color-interpolation-filters="sRGB">
<feFlood flood-opacity="0" result="BackgroundImageFix"/>
<feBlend mode="normal" in="SourceGraphic" in2="BackgroundImageFix" result="shape"/>
<feGaussianBlur stdDeviation="10" result="effect1_foregroundBlur_149_2"/>
</filter>
<linearGradient id="paint0_linear_149_2" x1="373.906" y1="-5.11117e-05" x2="-157.373" y2="332.361" gradientUnits="userSpaceOnUse">
<stop stop-color="#007BFF"/>
<stop offset="1" stop-color="#A586FC"/>
</linearGradient>
<linearGradient id="paint1_linear_149_2" x1="86.7954" y1="35.7471" x2="118.841" y2="128.949" gradientUnits="userSpaceOnUse">
<stop stop-color="white" stop-opacity="0.604"/>
<stop offset="1" stop-color="white" stop-opacity="0.2"/>
</linearGradient>
<clipPath id="clip0_149_2">
<rect width="428" height="926" fill="white"/>
</clipPath>
</defs>
</svg>
